Coordinates
version=1
nRows=18
nColumns=34
inDegrees=no

Units are S.I. units (second, meters, Newtons, ...)
If the header above contains a line with 'inDegrees', this indicates whether rotational values are in degrees (yes) or radians (no).

endheader
time	pelvis_tilt	pelvis_list	pelvis_rotation	pelvis_tx	pelvis_ty	pelvis_tz	hip_flexion_r	hip_adduction_r	hip_rotation_r	knee_angle_r	ankle_angle_r	subtalar_angle_r	mtp_angle_r	hip_flexion_l	hip_adduction_l	hip_rotation_l	knee_angle_l	ankle_angle_l	subtalar_angle_l	mtp_angle_l	lumbar_extension	lumbar_bending	lumbar_rotation	arm_flex_r	arm_add_r	arm_rot_r	elbow_flex_r	pro_sup_r	arm_flex_l	arm_add_l	arm_rot_l	elbow_flex_l	pro_sup_l
0.31	0.0667529	0.101099	0.0749422	-0.216596	0.82995	-0.242898	0.396799	-0.11012	-0.133807	-0.00393305	0.138549	0.105091	-0.0125152	-0.41736	0.144263	0.0472732	-0.00944495	0.361468	0.0856479	-0.0125255	-0.399476	-0.219927	-0.146326	-0.0485341	-0.241476	-0.024368	0.646147	2.13972	0.0483499	-0.238674	-0.104997	0.739273	2.04716
0.32	0.0691297	0.100289	0.0774084	-0.201953	0.840232	-0.243626	0.385109	-0.105662	-0.119125	-0.00305388	0.127514	0.0689766	-0.0125115	-0.433636	0.142768	0.0477224	-0.00755366	0.363179	0.0854174	-0.0125217	-0.398194	-0.209134	-0.144486	-0.0472672	-0.242514	-0.0295523	0.643313	2.13613	0.0388803	-0.237338	-0.104511	0.726858	2.04679
0.33	0.0725688	0.0964949	0.0799093	-0.187312	0.849654	-0.244305	0.37306	-0.0981956	-0.106324	-0.00019838	0.113884	0.0362815	-0.0125078	-0.44904	0.137239	0.0420593	-0.00217151	0.364833	0.0919864	-0.0125179	-0.397278	-0.195151	-0.141336	-0.0467032	-0.24371	-0.0359034	0.641022	2.13316	0.0293824	-0.235684	-0.103834	0.713682	2.04601
0.34	0.0770126	0.0897396	0.0824496	-0.172671	0.858243	-0.244936	0.360689	-0.08776	-0.0954712	0.00463072	0.0977192	0.00708119	-0.0125041	-0.463507	0.1277	0.03034	0.00670796	0.366393	0.105306	-0.0125142	-0.396676	-0.178021	-0.136891	-0.0468373	-0.245058	-0.0433948	0.639264	2.13082	0.0198484	-0.233714	-0.102984	0.699779	2.04484
0.35	0.0822998	0.0801124	0.0850298	-0.158031	0.866025	-0.245516	0.348159	-0.0744829	-0.0867101	0.0114299	0.0792265	-0.0185197	-0.0125004	-0.476827	0.114228	0.0127742	0.0191282	0.367722	0.125161	-0.0125104	-0.396243	-0.157875	-0.131195	-0.0476448	-0.246545	-0.0519321	0.638011	2.12915	0.0102525	-0.231442	-0.102012	0.685259	2.04337
0.36	0.0881247	0.0677989	0.0876228	-0.143402	0.873021	-0.246041	0.335825	-0.058617	-0.080151	0.0202294	0.0588079	-0.040624	-0.0124966	-0.488595	0.0969837	-0.0101868	0.0352236	0.368548	0.151039	-0.0125066	-0.395737	-0.134956	-0.124327	-0.0490653	-0.248156	-0.0613177	0.637212	2.12821	0.00054375	-0.228883	-0.10102	0.670337	2.04178
0.37	0.0940163	0.0531055	0.0901515	-0.128805	0.879246	-0.246508	0.324309	-0.0405858	-0.0758592	0.0312042	0.0371542	-0.0595458	-0.0124929	-0.498176	0.0762625	-0.0377466	0.0552553	0.368409	0.181961	-0.0125028	-0.394802	-0.109655	-0.116403	-0.0509876	-0.249878	-0.071226	0.636795	2.12801	-0.00936173	-0.226061	-0.100173	0.65535	2.04038
0.38	0.0993564	0.0364766	0.0924724	-0.114277	0.884712	-0.246906	0.3145	-0.0209976	-0.0738649	0.0447331	0.015293	-0.0756913	-0.0124892	-0.504718	0.0525397	-0.0687105	0.0796084	0.366623	0.216376	-0.012499	-0.392987	-0.0825323	-0.107581	-0.0532455	-0.251704	-0.0812084	0.63667	2.12856	-0.0195816	-0.223002	-0.0997005	0.640754	2.0395
0.39	0.103441	0.0184798	0.0943755	-0.0998603	0.889425	-0.247226	0.307438	-0.000603741	-0.0741382	0.0613339	-0.00546797	-0.0894414	-0.0124855	-0.507235	0.0264667	-0.101525	0.108743	0.362302	0.252191	-0.0124952	-0.389784	-0.0542868	-0.0980531	-0.0556296	-0.253637	-0.0907325	0.636743	2.12978	-0.0302577	-0.219735	-0.0998857	0.627085	2.03953
0.4	0.10558	-0.000245703	0.0956057	-0.085604	0.893398	-0.247453	0.304101	0.0197988	-0.0765202	0.0814783	-0.0237145	-0.101107	-0.0124818	-0.504749	-0.00118249	-0.134422	0.14311	0.354402	0.286958	-0.0124915	-0.384715	-0.0256853	-0.0880239	-0.0579142	-0.255691	-0.0992492	0.636936	2.13155	-0.0415347	-0.216286	-0.101029	0.614898	2.04076
0.41	0.105218	-0.0190668	0.0959028	-0.0715522	0.896657	-0.247576	0.305151	0.0394983	-0.0806456	0.10535	-0.0381688	-0.110961	-0.012478	-0.496462	-0.0296084	-0.165628	0.183052	0.341819	0.318174	-0.0124877	-0.377418	0.00253469	-0.0776948	-0.0598928	-0.25789	-0.106275	0.637215	2.1337	-0.0535304	-0.212682	-0.103395	0.604686	2.04338
0.42	0.102039	-0.0374394	0.0950515	-0.0577395	0.899245	-0.247583	0.310724	0.0579933	-0.0859083	0.132636	-0.0479251	-0.119308	-0.0124743	-0.481902	-0.0580973	-0.193599	0.228707	0.323515	0.343614	-0.0124839	-0.367733	0.0297638	-0.0672425	-0.0614128	-0.260258	-0.111471	0.637598	2.13604	-0.0663015	-0.208958	-0.107159	0.596809	2.04743
0.43	0.0960376	-0.0549701	0.0929277	-0.0441873	0.901226	-0.247467	0.320322	0.0750714	-0.0915063	0.162439	-0.0525976	-0.126516	-0.0124706	-0.46103	-0.086108	-0.217162	0.279925	0.298647	0.361566	-0.0124801	-0.355751	0.0555894	-0.0568055	-0.062399	-0.262814	-0.114697	0.63817	2.13834	-0.0798118	-0.205165	-0.112343	0.591437	2.05284
0.44	0.0875216	-0.0714524	0.0895316	-0.0309029	0.902685	-0.247227	0.332854	0.0908276	-0.0965516	0.19333	-0.0523545	-0.133032	-0.0124669	-0.434248	-0.113331	-0.235612	0.336242	0.266728	0.371021	-0.0124763	-0.341816	0.0798254	-0.0464785	-0.062862	-0.265553	-0.116037	0.639068	2.1404	-0.0939099	-0.201384	-0.118785	0.588527	2.05936
0.45	0.0770651	-0.0868643	0.0850012	-0.017882	0.903722	-0.246865	0.346795	0.105614	-0.100217	0.223547	-0.0478368	-0.139347	-0.0124632	-0.402329	-0.139699	-0.248737	0.396906	0.227783	0.371765	-0.0124726	-0.326481	0.102495	-0.036316	-0.0628883	-0.268439	-0.115783	0.640462	2.14204	-0.108325	-0.197736	-0.126122	0.58784	2.06664
0.46	0.0654024	-0.101329	0.0796033	-0.00511343	0.904442	-0.246392	0.360457	0.119931	-0.101878	0.251274	-0.0399942	-0.145932	-0.0124595	-0.366267	-0.16534	-0.256739	0.460954	0.182502	0.364356	-0.0124688	-0.310413	0.123772	-0.0263486	-0.0626138	-0.271395	-0.114384	0.642522	2.14314	-0.12268	-0.194386	-0.133822	0.588988	2.07426
0.47	0.0533021	-0.115043	0.0737073	0.00741484	0.904951	-0.245823	0.372269	0.134277	-0.101224	0.274936	-0.029886	-0.153146	-0.0124558	-0.327094	-0.190484	-0.260091	0.527318	0.132325	0.349991	-0.012465	-0.294286	0.14389	-0.0166081	-0.0621862	-0.274303	-0.112367	0.645378	2.14368	-0.136529	-0.191536	-0.141242	0.591506	2.08175
0.48	0.041451	-0.128189	0.0677525	0.0197104	0.905341	-0.245177	0.381021	0.148995	-0.0983135	0.29344	-0.0184906	-0.16114	-0.0124521	-0.285713	-0.215319	-0.259342	0.594912	0.0794313	0.330279	-0.0124612	-0.278687	0.163049	-0.00716281	-0.0617236	-0.27702	-0.110246	0.649089	2.14372	-0.149402	-0.189406	-0.147723	0.594924	2.08868
